<svg width="24" height="24" viewBox="0 0 24 24" fill="none" xmlns="http://www.w3.org/2000/svg">
<path d="M19.3852 17.1452C20.403 15.687 21 13.9132 21 12C21 7.02944 16.9706 3 12 3C7.02944 3 3 7.02944 3 12C3 16.9706 7.02944 21 12 21C13.4241 21 14.771 20.6692 15.968 20.0803C17.4138 20.5947 19.0111 20.9259 20.5657 20.8585C20.9454 20.8421 21.1336 20.4064 20.9307 20.085C20.405 19.2523 19.8603 18.1962 19.3852 17.1452Z" stroke="#78707C" stroke-width="2"/>
<path d="M8.5 10L10.5 10" stroke="#78707C" stroke-width="2" stroke-linecap="round" stroke-linejoin="round"/>
<path d="M8.5 14L15.5 14" stroke="#78707C" stroke-width="2" stroke-linecap="round" stroke-linejoin="round"/>
</svg>
