<svg width="20" height="20" viewBox="0 0 20 20" fill="none" xmlns="http://www.w3.org/2000/svg">
<path d="M5.83333 5.83301C5.83333 5.37277 5.46024 4.99967 5 4.99967C4.53976 4.99967 4.16667 5.37277 4.16667 5.83301H5.83333ZM15.8333 5.83301C15.8333 5.37277 15.4602 4.99967 15 4.99967C14.5398 4.99967 14.1667 5.37277 14.1667 5.83301H15.8333ZM14.1667 5.83301V15.833H15.8333V5.83301H14.1667ZM13.3333 16.6663H6.66667V18.333H13.3333V16.6663ZM5.83333 15.833V5.83301H4.16667V15.833H5.83333ZM6.66667 16.6663C6.20643 16.6663 5.83333 16.2932 5.83333 15.833H4.16667C4.16667 17.2137 5.28596 18.333 6.66667 18.333V16.6663ZM14.1667 15.833C14.1667 16.2932 13.7936 16.6663 13.3333 16.6663V18.333C14.714 18.333 15.8333 17.2137 15.8333 15.833H14.1667Z" fill="#78707C"/>
<path d="M3.33337 4.16667C2.87314 4.16667 2.50004 4.53976 2.50004 5C2.50004 5.46024 2.87314 5.83333 3.33337 5.83333V4.16667ZM16.6667 5.83333C17.1269 5.83333 17.5 5.46024 17.5 5C17.5 4.53976 17.1269 4.16667 16.6667 4.16667V5.83333ZM3.33337 5.83333H16.6667V4.16667H3.33337V5.83333Z" fill="#78707C"/>
<path d="M12.0834 14.1663C12.5436 14.1663 12.9167 13.7932 12.9167 13.333C12.9167 12.8728 12.5436 12.4997 12.0834 12.4997L12.0834 14.1663ZM7.91671 12.4997C7.45647 12.4997 7.08337 12.8728 7.08337 13.333C7.08337 13.7932 7.45647 14.1663 7.91671 14.1663L7.91671 12.4997ZM12.0834 12.4997L7.91671 12.4997L7.91671 14.1663L12.0834 14.1663L12.0834 12.4997Z" fill="#78707C"/>
<path d="M12.0834 10.0003C12.5436 10.0003 12.9167 9.62723 12.9167 9.16699C12.9167 8.70675 12.5436 8.33366 12.0834 8.33366L12.0834 10.0003ZM7.91671 8.33366C7.45647 8.33366 7.08337 8.70675 7.08337 9.16699C7.08337 9.62723 7.45647 10.0003 7.91671 10.0003L7.91671 8.33366ZM12.0834 8.33366L7.91671 8.33366L7.91671 10.0003L12.0834 10.0003L12.0834 8.33366Z" fill="#78707C"/>
<path d="M11.6667 5C11.6667 5.46024 12.0398 5.83333 12.5 5.83333C12.9602 5.83333 13.3333 5.46024 13.3333 5H11.6667ZM6.66667 5C6.66667 5.46024 7.03976 5.83333 7.5 5.83333C7.96024 5.83333 8.33333 5.46024 8.33333 5H6.66667ZM8.33333 5C8.33333 4.07953 9.07953 3.33333 10 3.33333V1.66667C8.15905 1.66667 6.66667 3.15905 6.66667 5H8.33333ZM10 3.33333C10.9205 3.33333 11.6667 4.07953 11.6667 5H13.3333C13.3333 3.15905 11.8409 1.66667 10 1.66667V3.33333Z" fill="#78707C"/>
</svg>
