<svg width="24" height="24" viewBox="0 0 24 24" fill="none" xmlns="http://www.w3.org/2000/svg">
<path d="M12 13C7.02944 13 3 15.5717 3 19.2924V20C3 20.5523 3.44772 21 4 21H20C20.5523 21 21 20.5523 21 20V19.2924C21 15.5717 16.9706 13 12 13Z" stroke="#78707C" stroke-width="2" stroke-linecap="round"/>
<path d="M8 7C8 4.79086 9.79086 3 12 3V3C14.2091 3 16 4.79086 16 7V9C16 11.2091 14.2091 13 12 13V13C9.79086 13 8 11.2091 8 9V7Z" stroke="#78707C" stroke-width="2" stroke-linecap="round" stroke-linejoin="round"/>
</svg>
