<svg width="20" height="20" viewBox="0 0 20 20" fill="none" xmlns="http://www.w3.org/2000/svg">
<g filter="url(#filter0_b_101_1663)">
<path d="M10 13.75L10 9.58333" stroke="#60CCD8" stroke-width="1.66667" stroke-linecap="round" stroke-linejoin="round"/>
<path d="M11.6667 12.917L12.256 13.5062C12.4943 13.2679 12.5656 12.9095 12.4366 12.5981C12.3077 12.2867 12.0038 12.0837 11.6667 12.0837L11.6667 12.917ZM10.0001 14.5837L9.41083 15.1729C9.73626 15.4984 10.2639 15.4984 10.5893 15.1729L10.0001 14.5837ZM8.33341 12.917L8.33341 12.0837C7.99636 12.0837 7.6925 12.2867 7.56352 12.5981C7.43453 12.9095 7.50583 13.2679 7.74416 13.5062L8.33341 12.917ZM11.0775 12.3277L9.41083 13.9944L10.5893 15.1729L12.256 13.5062L11.0775 12.3277ZM10.5893 13.9944L8.92267 12.3277L7.74416 13.5062L9.41083 15.1729L10.5893 13.9944ZM8.33341 13.7503L11.6667 13.7503L11.6667 12.0837L8.33341 12.0837L8.33341 13.7503Z" fill="#60CCD8"/>
<path d="M2.5 6.38889C2.5 6.02827 2.61696 5.67738 2.83333 5.38889L4.5 3.16667C4.81476 2.74699 5.30874 2.5 5.83333 2.5H14.1667C14.6913 2.5 15.1852 2.74699 15.5 3.16667L17.1667 5.38889C17.383 5.67738 17.5 6.02827 17.5 6.38889V15.8333C17.5 16.7538 16.7538 17.5 15.8333 17.5H4.16667C3.24619 17.5 2.5 16.7538 2.5 15.8333V6.38889Z" stroke="#60CCD8" stroke-width="1.66667" stroke-linecap="round" stroke-linejoin="round"/>
<path d="M16.6666 6.66699H3.33325" stroke="#60CCD8" stroke-width="1.66667" stroke-linecap="round" stroke-linejoin="round"/>
</g>
<defs>
<filter id="filter0_b_101_1663" x="-4" y="-4" width="28" height="28" filterUnits="userSpaceOnUse" color-interpolation-filters="sRGB">
<feFlood flood-opacity="0" result="BackgroundImageFix"/>
<feGaussianBlur in="BackgroundImage" stdDeviation="2"/>
<feComposite in2="SourceAlpha" operator="in" result="effect1_backgroundBlur_101_1663"/>
<feBlend mode="normal" in="SourceGraphic" in2="effect1_backgroundBlur_101_1663" result="shape"/>
</filter>
</defs>
</svg>
