<svg width="24" height="24" viewBox="0 0 24 24" fill="none" xmlns="http://www.w3.org/2000/svg">
<path d="M8.93186 7.59548C9.11886 7.13344 9.88407 7.13344 10.0711 7.59548C10.5167 8.69651 11.2017 10.1091 12.047 10.9544C12.8924 11.7997 14.305 12.4848 15.406 12.9304C15.868 13.1174 15.868 13.8826 15.406 14.0696C14.305 14.5152 12.8924 15.2003 12.047 16.0456C11.2017 16.8909 10.5167 18.3035 10.0711 19.4045C9.88407 19.8666 9.11886 19.8666 8.93186 19.4045C8.48624 18.3035 7.80121 16.8909 6.95588 16.0456C6.11055 15.2003 4.69797 14.5152 3.59695 14.0696C3.1349 13.8826 3.1349 13.1174 3.59695 12.9304C4.69797 12.4848 6.11055 11.7997 6.95588 10.9544C7.80121 10.1091 8.48624 8.69651 8.93186 7.59548Z" stroke="#78707C" stroke-width="2" stroke-linejoin="round"/>
<path d="M17 4.00098C17.3692 5.22174 17.7975 5.63578 19 6.00098C17.8038 6.37849 17.364 6.81454 17 8.00098C16.6465 6.78532 16.1986 6.35092 15 6.00098C16.19 5.65076 16.6334 5.22009 17 4.00098Z" stroke="#78707C" stroke-width="2" stroke-linejoin="round"/>
<path d="M19.0015 16.999C19.3706 18.2198 19.799 18.6338 21.0015 18.999C19.8053 19.3765 19.3655 19.8126 19.0015 20.999C18.648 19.7834 18.2001 19.349 17.0015 18.999C18.1915 18.6488 18.6349 18.2181 19.0015 16.999Z" stroke="#78707C" stroke-width="2" stroke-linejoin="round"/>
</svg>
