<svg width="20" height="20" viewBox="0 0 20 20" fill="none" xmlns="http://www.w3.org/2000/svg">
<path d="M7.44195 6.32957C7.59779 5.94453 8.23547 5.94453 8.3913 6.32957C8.76264 7.24709 9.33351 8.42424 10.0379 9.12868C10.7424 9.83312 11.9195 10.404 12.8371 10.7753C13.2221 10.9312 13.2221 11.5688 12.8371 11.7247C11.9195 12.096 10.7424 12.6669 10.0379 13.3713C9.33351 14.0758 8.76264 15.2529 8.3913 16.1704C8.23547 16.5555 7.59779 16.5555 7.44195 16.1704C7.07061 15.2529 6.49974 14.0758 5.79531 13.3713C5.09087 12.6669 3.91371 12.096 2.9962 11.7247C2.61116 11.5688 2.61116 10.9312 2.9962 10.7753C3.91371 10.404 5.09087 9.83312 5.79531 9.12868C6.49974 8.42424 7.07061 7.24709 7.44195 6.32957Z" stroke="#6AE082" stroke-width="1.66667" stroke-linejoin="round"/>
<path d="M14.1667 3.33301C14.4743 4.35031 14.8312 4.69534 15.8333 4.99967C14.8365 5.31427 14.47 5.67764 14.1667 6.66634C13.8721 5.65329 13.4989 5.29129 12.5 4.99967C13.4917 4.70782 13.8612 4.34894 14.1667 3.33301Z" stroke="#6AE082" stroke-width="1.66667" stroke-linejoin="round"/>
<path d="M15.8333 14.167C16.1409 15.1843 16.4979 15.5293 17.5 15.8337C16.5031 16.1483 16.1366 16.5116 15.8333 17.5003C15.5387 16.4873 15.1655 16.1253 14.1666 15.8337C15.1583 15.5418 15.5278 15.1829 15.8333 14.167Z" stroke="#6AE082" stroke-width="1.66667" stroke-linejoin="round"/>
</svg>
