<svg width="20" height="20" viewBox="0 0 20 20" fill="none" xmlns="http://www.w3.org/2000/svg">
<path d="M10.8333 5C10.8333 4.53976 10.4602 4.16667 10 4.16667C9.53976 4.16667 9.16667 4.53976 9.16667 5H10.8333ZM9.16667 15C9.16667 15.4602 9.53976 15.8333 10 15.8333C10.4602 15.8333 10.8333 15.4602 10.8333 15H9.16667ZM15 10.8333C15.4602 10.8333 15.8333 10.4602 15.8333 10C15.8333 9.53976 15.4602 9.16667 15 9.16667V10.8333ZM5 9.16667C4.53976 9.16667 4.16667 9.53976 4.16667 10C4.16667 10.4602 4.53976 10.8333 5 10.8333L5 9.16667ZM9.16667 5V15H10.8333V5H9.16667ZM15 9.16667L5 9.16667L5 10.8333L15 10.8333V9.16667Z" fill="#FD6C12"/>
</svg>
