<svg width="24" height="24" viewBox="0 0 24 24" fill="none" xmlns="http://www.w3.org/2000/svg">
<path d="M19 12V6.5C19 5.39543 18.1046 4.5 17 4.5H5C3.89543 4.5 3 5.39543 3 6.5V17C3 18.1046 3.89543 19 5 19H12" stroke="white" stroke-width="2" stroke-linecap="round" stroke-linejoin="round"/>
<path d="M6 4.5C6 5.05228 6.44772 5.5 7 5.5C7.55228 5.5 8 5.05228 8 4.5H6ZM8 3C8 2.44772 7.55228 2 7 2C6.44772 2 6 2.44772 6 3H8ZM14 4.5C14 5.05228 14.4477 5.5 15 5.5C15.5523 5.5 16 5.05228 16 4.5H14ZM16 3C16 2.44772 15.5523 2 15 2C14.4477 2 14 2.44772 14 3H16ZM8 4.5V3H6V4.5H8ZM16 4.5V3H14V4.5H16Z" fill="white"/>
<path d="M3 8H19" stroke="white" stroke-width="2" stroke-linecap="round"/>
<circle cx="16" cy="16" r="5" stroke="white" stroke-width="2" stroke-linecap="round" stroke-linejoin="round"/>
<path d="M17.5 14.5C17.5 13.9477 17.0523 13.5 16.5 13.5C15.9477 13.5 15.5 13.9477 15.5 14.5H17.5ZM16.5 16.5L17.2071 17.2071C17.3946 17.0196 17.5 16.7652 17.5 16.5H16.5ZM14.7929 16.7929C14.4024 17.1834 14.4024 17.8166 14.7929 18.2071C15.1834 18.5976 15.8166 18.5976 16.2071 18.2071L14.7929 16.7929ZM15.5 14.5V16.5H17.5V14.5H15.5ZM15.7929 15.7929L14.7929 16.7929L16.2071 18.2071L17.2071 17.2071L15.7929 15.7929Z" fill="white"/>
</svg>
