<svg width="24" height="24" viewBox="0 0 24 24" fill="none" xmlns="http://www.w3.org/2000/svg">
<path d="M3 9.12167C3 8.42494 3.36259 7.77842 3.9571 7.41511L10.9571 3.13733C11.5973 2.74608 12.4027 2.74608 13.0429 3.13733L20.0429 7.41511C20.6374 7.77842 21 8.42494 21 9.12167V19C21 20.1046 20.1046 21 19 21H5C3.89543 21 3 20.1046 3 19V9.12167Z" stroke="#78707C" stroke-width="2" stroke-linejoin="round"/>
<path d="M9 14.5L8.55279 13.6056C8.214 13.775 8 14.1212 8 14.5H9ZM15 14.5H16C16 14.1212 15.786 13.775 15.4472 13.6056L15 14.5ZM12 13L12.4472 12.1056C12.1657 11.9648 11.8343 11.9648 11.5528 12.1056L12 13ZM14 14.5V21H16V14.5H14ZM10 21V14.5H8V21H10ZM9.44721 15.3944L12.4472 13.8944L11.5528 12.1056L8.55279 13.6056L9.44721 15.3944ZM11.5528 13.8944L14.5528 15.3944L15.4472 13.6056L12.4472 12.1056L11.5528 13.8944Z" fill="#78707C"/>
</svg>
