<svg width="20" height="20" viewBox="0 0 20 20" fill="none" xmlns="http://www.w3.org/2000/svg">
<path d="M13.3333 17.4997L13.3333 18.333C13.5543 18.333 13.7663 18.2452 13.9226 18.0889L13.3333 17.4997ZM10.8333 14.9997L10.2441 14.4104C10.0878 14.5667 10 14.7787 10 14.9997L10.8333 14.9997ZM10.8333 17.4997L10 17.4997C10 17.7207 10.0878 17.9326 10.2441 18.0889C10.4004 18.2452 10.6123 18.333 10.8333 18.333L10.8333 17.4997ZM16.9107 12.7438L16.3215 13.333L16.9107 12.7438ZM15.5893 11.4223L15 12.0115L15.5893 11.4223ZM15 12.0115L16.3215 13.333L17.5 12.1545L16.1785 10.833L15 12.0115ZM16.3215 13.333L12.7441 16.9104L13.9226 18.0889L17.5 14.5115L16.3215 13.333ZM11.4226 15.5889L15 12.0115L13.8215 10.833L10.2441 14.4104L11.4226 15.5889ZM13.3333 16.6663H10.8333L10.8333 18.333L13.3333 18.333L13.3333 16.6663ZM11.6667 17.4997L11.6667 14.9997L10 14.9997L10 17.4997L11.6667 17.4997ZM16.3215 13.333L16.3215 13.333L17.5 14.5115C18.1509 13.8606 18.1509 12.8054 17.5 12.1545L16.3215 13.333ZM16.1785 10.833C15.5276 10.1821 14.4724 10.1821 13.8215 10.833L15 12.0115L15 12.0115L16.1785 10.833Z" fill="#78707C"/>
<path d="M5 2.5V1.66667C4.53976 1.66667 4.16667 2.03976 4.16667 2.5H5ZM5 17.5H4.16667C4.16667 17.9602 4.53976 18.3333 5 18.3333V17.5ZM15 8.33333C15 8.79357 15.3731 9.16667 15.8333 9.16667C16.2936 9.16667 16.6667 8.79357 16.6667 8.33333H15ZM7.91667 18.3333C8.3769 18.3333 8.75 17.9602 8.75 17.5C8.75 17.0398 8.3769 16.6667 7.91667 16.6667V18.3333ZM5 3.33333H14.1667V1.66667H5V3.33333ZM5.83333 17.5V2.5H4.16667V17.5H5.83333ZM15 4.16667V8.33333H16.6667V4.16667H15ZM7.91667 16.6667H5V18.3333H7.91667V16.6667ZM14.1667 3.33333C14.6269 3.33333 15 3.70643 15 4.16667H16.6667C16.6667 2.78596 15.5474 1.66667 14.1667 1.66667V3.33333Z" fill="#78707C"/>
<path d="M5.83325 5.83301H3.33325" stroke="#78707C" stroke-width="1.66667" stroke-linecap="round" stroke-linejoin="round"/>
<path d="M5.83325 10H3.33325" stroke="#78707C" stroke-width="1.66667" stroke-linecap="round" stroke-linejoin="round"/>
<path d="M5.83325 14.167H3.33325" stroke="#78707C" stroke-width="1.66667" stroke-linecap="round" stroke-linejoin="round"/>
</svg>
