<svg width="24" height="24" viewBox="0 0 24 24" fill="none" xmlns="http://www.w3.org/2000/svg">
<path d="M8.93198 7.59548C9.11898 7.13344 9.88419 7.13344 10.0712 7.59548C10.5168 8.69651 11.2018 10.1091 12.0472 10.9544C12.8925 11.7997 14.3051 12.4848 15.4061 12.9304C15.8681 13.1174 15.8681 13.8826 15.4061 14.0696C14.3051 14.5152 12.8925 15.2003 12.0472 16.0456C11.2018 16.8909 10.5168 18.3035 10.0712 19.4045C9.88419 19.8666 9.11898 19.8666 8.93198 19.4045C8.48637 18.3035 7.80133 16.8909 6.956 16.0456C6.11068 15.2003 4.69809 14.5152 3.59707 14.0696C3.13503 13.8826 3.13503 13.1174 3.59707 12.9304C4.69809 12.4848 6.11068 11.7997 6.956 10.9544C7.80133 10.1091 8.48637 8.69651 8.93198 7.59548Z" stroke="white" stroke-width="2" stroke-linejoin="round"/>
<path d="M17 4.00098C17.3692 5.22174 17.7975 5.63578 19 6.00098C17.8038 6.37849 17.364 6.81454 17 8.00098C16.6465 6.78532 16.1986 6.35092 15 6.00098C16.19 5.65076 16.6334 5.22009 17 4.00098Z" stroke="white" stroke-width="2" stroke-linejoin="round"/>
<path d="M19.0016 16.999C19.3707 18.2198 19.7991 18.6338 21.0016 18.999C19.8054 19.3765 19.3656 19.8126 19.0016 20.999C18.6481 19.7834 18.2002 19.349 17.0016 18.999C18.1916 18.6488 18.635 18.2181 19.0016 16.999Z" stroke="white" stroke-width="2" stroke-linejoin="round"/>
</svg>
