<svg width="16" height="17" viewBox="0 0 16 17" fill="none" xmlns="http://www.w3.org/2000/svg">
<path d="M5.13937 4.69559C4.87902 4.43524 4.45691 4.43524 4.19656 4.69559C3.93621 4.95594 3.93621 5.37805 4.19656 5.6384L5.13937 4.69559ZM10.8632 12.3051C11.1236 12.5654 11.5457 12.5654 11.806 12.3051C12.0664 12.0447 12.0664 11.6226 11.806 11.3623L10.8632 12.3051ZM11.806 5.6384C12.0664 5.37805 12.0664 4.95594 11.806 4.69559C11.5457 4.43524 11.1236 4.43524 10.8632 4.69559L11.806 5.6384ZM4.19656 11.3623C3.93621 11.6226 3.93621 12.0447 4.19656 12.3051C4.45691 12.5654 4.87902 12.5654 5.13937 12.3051L4.19656 11.3623ZM4.19656 5.6384L7.5299 8.97173L8.47271 8.02892L5.13937 4.69559L4.19656 5.6384ZM7.5299 8.97173L10.8632 12.3051L11.806 11.3623L8.47271 8.02892L7.5299 8.97173ZM10.8632 4.69559L7.5299 8.02892L8.47271 8.97173L11.806 5.6384L10.8632 4.69559ZM7.5299 8.02892L4.19656 11.3623L5.13937 12.3051L8.47271 8.97173L7.5299 8.02892Z" fill="#78707C"/>
</svg>
