<svg width="20" height="20" viewBox="0 0 20 20" fill="none" xmlns="http://www.w3.org/2000/svg">
<path d="M9.58325 3.33301H4.99992C4.07944 3.33301 3.33325 4.0792 3.33325 4.99967V14.9997C3.33325 15.9201 4.07944 16.6663 4.99992 16.6663H14.9999C15.9204 16.6663 16.6666 15.9201 16.6666 14.9997V10.4163" stroke="#78707C" stroke-width="1.66667" stroke-linecap="round" stroke-linejoin="round"/>
<path d="M6.66659 6.66699L8.33325 6.66699" stroke="#78707C" stroke-width="1.66667" stroke-linecap="round" stroke-linejoin="round"/>
<path d="M6.66675 13.333L11.6667 13.333" stroke="#78707C" stroke-width="1.66667" stroke-linecap="round" stroke-linejoin="round"/>
<path d="M6.66659 10H8.33325" stroke="#78707C" stroke-width="1.66667" stroke-linecap="round" stroke-linejoin="round"/>
<path d="M13.7501 8.74967L13.7501 9.58301C13.9711 9.58301 14.1831 9.49521 14.3393 9.33893L13.7501 8.74967ZM11.2501 6.24967L10.6608 5.66042C10.5045 5.8167 10.4167 6.02866 10.4167 6.24967L11.2501 6.24967ZM11.2501 8.74967L10.4167 8.74967C10.4167 8.97069 10.5045 9.18265 10.6608 9.33893C10.8171 9.49521 11.0291 9.58301 11.2501 9.58301L11.2501 8.74967ZM17.3275 3.99375L16.7382 4.58301L17.3275 3.99375ZM16.006 2.67226L15.4167 3.26152L16.006 2.67226ZM15.4167 3.26152L16.7382 4.58301L17.9167 3.4045L16.5953 2.08301L15.4167 3.26152ZM16.7382 4.58301L13.1608 8.16042L14.3393 9.33893L17.9167 5.76152L16.7382 4.58301ZM11.8393 6.83893L15.4167 3.26152L14.2382 2.08301L10.6608 5.66042L11.8393 6.83893ZM13.7501 7.91634H11.2501L11.2501 9.58301L13.7501 9.58301L13.7501 7.91634ZM12.0834 8.74967L12.0834 6.24967L10.4167 6.24967L10.4167 8.74967L12.0834 8.74967ZM16.7382 4.58301L16.7382 4.58301L17.9167 5.76152C18.5676 5.11065 18.5676 4.05537 17.9167 3.4045L16.7382 4.58301ZM16.5953 2.08301C15.9444 1.43213 14.8891 1.43213 14.2382 2.08301L15.4167 3.26152L15.4167 3.26152L16.5953 2.08301Z" fill="#78707C"/>
</svg>
