<svg width="24" height="24" viewBox="0 0 24 24" fill="none" xmlns="http://www.w3.org/2000/svg">
<path d="M11.5 4H6C4.89543 4 4 4.89543 4 6V18C4 19.1046 4.89543 20 6 20H18C19.1046 20 20 19.1046 20 18V12.5" stroke="#78707C" stroke-width="2" stroke-linecap="round" stroke-linejoin="round"/>
<path d="M8 8L10 8" stroke="#78707C" stroke-width="2" stroke-linecap="round" stroke-linejoin="round"/>
<path d="M8 16L14 16" stroke="#78707C" stroke-width="2" stroke-linecap="round" stroke-linejoin="round"/>
<path d="M8 12H10" stroke="#78707C" stroke-width="2" stroke-linecap="round" stroke-linejoin="round"/>
<path d="M16.5 10.5V11.5C16.7652 11.5 17.0196 11.3946 17.2071 11.2071L16.5 10.5ZM13.5 7.5L12.7929 6.79289C12.6054 6.98043 12.5 7.23478 12.5 7.5L13.5 7.5ZM13.5 10.5L12.5 10.5C12.5 10.7652 12.6054 11.0196 12.7929 11.2071C12.9804 11.3946 13.2348 11.5 13.5 11.5L13.5 10.5ZM20.7929 4.79289L20.0858 5.5L20.7929 4.79289ZM18.5 3.91421L20.0858 5.5L21.5 4.08579L19.9142 2.5L18.5 3.91421ZM20.0858 5.5L15.7929 9.79289L17.2071 11.2071L21.5 6.91421L20.0858 5.5ZM14.2071 8.20711L18.5 3.91421L17.0858 2.5L12.7929 6.79289L14.2071 8.20711ZM16.5 9.5L13.5 9.5L13.5 11.5L16.5 11.5L16.5 9.5ZM14.5 10.5L14.5 7.5L12.5 7.5L12.5 10.5L14.5 10.5ZM20.0858 5.5L20.0858 5.5L21.5 6.91421C22.281 6.13316 22.281 4.86683 21.5 4.08579L20.0858 5.5ZM19.9142 2.5C19.1332 1.71895 17.8668 1.71895 17.0858 2.5L18.5 3.91421L18.5 3.91421L19.9142 2.5Z" fill="#78707C"/>
</svg>
