<svg width="24" height="24" viewBox="0 0 24 24" fill="none" xmlns="http://www.w3.org/2000/svg">
<path d="M7 9.57764C4.63505 10.5406 3 12.6068 3 15.0002C3 18.3139 6.13401 21.0002 10 21.0002C11.002 21.0002 11.9549 20.8198 12.8167 20.4947C14.0217 20.8347 15.3208 21.0418 16.589 20.9932C16.9375 20.9798 17.1102 20.6259 16.924 20.3648C16.5272 19.8085 16.1186 19.1296 15.7435 18.4311C16.5355 17.4588 17 16.276 17 15.0002C17 14.6595 16.9669 14.3254 16.9032 14.0002" stroke="#78707C" stroke-width="2" stroke-linejoin="round"/>
<path d="M8.25654 12.4308L9.03187 11.7993C9.28694 12.1124 9.32861 12.5482 9.13751 12.904L8.25654 12.4308ZM11.1833 14.4945L10.9117 13.5321C11.1174 13.474 11.3362 13.4834 11.5362 13.5588L11.1833 14.4945ZM7.41099 14.993L7.37268 15.9922H7.37267L7.41099 14.993ZM7.07601 14.3646L7.89014 14.9453L7.89014 14.9453L7.07601 14.3646ZM8 9C8 10.0245 8.37125 10.9883 9.03187 11.7993L7.48122 13.0624C6.55783 11.9288 6 10.527 6 9H8ZM14 4C10.5361 4 8 6.37764 8 9H6C6 4.99494 9.7319 2 14 2V4ZM20 9C20 6.37764 17.4639 4 14 4V2C18.2681 2 22 4.99494 22 9H20ZM14 14C17.4639 14 20 11.6224 20 9H22C22 13.0051 18.2681 16 14 16V14ZM11.5362 13.5588C12.2848 13.8412 13.1181 14 14 14V16C12.8779 16 11.8054 15.7979 10.8304 15.4301L11.5362 13.5588ZM11.4549 15.4569C10.1766 15.8176 8.77059 16.0458 7.37268 15.9922L7.44931 13.9937C8.58778 14.0373 9.78004 13.8514 10.9117 13.5321L11.4549 15.4569ZM7.37267 15.9922C6.28716 15.9506 5.58033 14.7395 6.26189 13.7839L7.89014 14.9453C8.02063 14.7623 8.03539 14.5138 7.93137 14.3125C7.82591 14.1085 7.62726 14.0005 7.44931 13.9937L7.37267 15.9922ZM6.26189 13.7839C6.62713 13.2718 7.01374 12.6313 7.37558 11.9577L9.13751 12.904C8.74903 13.6273 8.31846 14.3448 7.89014 14.9453L6.26189 13.7839Z" fill="#78707C"/>
</svg>
